<?xml version="1.0" encoding="utf-8"?>
<!-- Generator: Adobe Illustrator 23.0.4, SVG Export Plug-In . SVG Version: 6.00 Build 0)  -->
<svg version="1.1" id="Layer_1" xmlns="http://www.w3.org/2000/svg" xmlns:xlink="http://www.w3.org/1999/xlink" x="0px" y="0px"
	 viewBox="0 0 1000 1000" style="enable-background:new 0 0 1000 1000;" xml:space="preserve">
<style type="text/css">
	.st0{fill:#FFFFFF;}
	.st1{fill:none;stroke:#000000;stroke-width:41;stroke-linecap:round;stroke-linejoin:round;stroke-miterlimit:10;}
</style>
<g>
	<path class="st0" d="M270.3,979.2v-41.4c-1.9-55.5-72.6-166.9-88.2-227.6c-5.7-21.7-9.8-47.2-9.6-74.5l2.7-135.1l3-221.4
		c0.4-29.7,23.5-53.7,52.7-53.3c28,0.4,50.6,22.7,52.1,50.7l2.2-161.6c0.4-29.6,23.8-53.7,53.4-53.3c29.7,0.4,53.4,24.8,53,54.4
		l0.6-42.5c0.4-29.6,24.8-53.4,54.4-53c29.6,0.4,53.4,24.8,53,54.4l-0.8,57.7c1.3-29.5,25.1-53,54.2-52.7
		c14.8,0.1,28.2,6.5,37.9,16.5c9.6,10.1,15.5,23.9,15.3,39.1l-5,370.7l49.5-94c10.3-15.4,51.1-74,89.3-61.3
		c41.2,13.7,42.3,49.4,31,75.5l-77.1,171.2c-12.1,44.6-7.1,146.9-60.8,204c-50.6,51.7-74.3,98.3-74.3,156.3l0,21.7"/>
	<line class="st0" x1="391.5" y1="116.1" x2="391.5" y2="488.6"/>
	<line class="st0" x1="498.6" y1="132.7" x2="498.6" y2="488.6"/>
	<line class="st0" x1="282.9" y1="276.6" x2="282.9" y2="488.6"/>
</g>
<g>
	<path class="st1" d="M270.3,979.2v-41.4c-1.9-55.5-72.6-166.9-88.2-227.6c-5.7-21.7-9.8-47.2-9.6-74.5l2.7-135.1l3-221.4
		c0.4-29.7,23.5-53.7,52.7-53.3c28,0.4,50.6,22.7,52.1,50.7l2.2-161.6c0.4-29.6,23.8-53.7,53.4-53.3c29.7,0.4,53.4,24.8,53,54.4
		l0.6-42.5c0.4-29.6,24.8-53.4,54.4-53c29.6,0.4,53.4,24.8,53,54.4l-0.8,57.7c1.3-29.5,25.1-53,54.2-52.7
		c14.8,0.1,28.2,6.5,37.9,16.5c9.6,10.1,15.5,23.9,15.3,39.1l-5,370.7l49.5-94c10.3-15.4,51.1-74,89.3-61.3
		c41.2,13.7,42.3,49.4,31,75.5l-77.1,171.2c-12.1,44.6-7.1,146.9-60.8,204c-50.6,51.7-74.3,98.3-74.3,156.3l0,21.7"/>
	<line class="st1" x1="391.5" y1="116.1" x2="391.5" y2="488.6"/>
	<line class="st1" x1="498.6" y1="132.7" x2="498.6" y2="488.6"/>
	<line class="st1" x1="282.9" y1="276.6" x2="282.9" y2="488.6"/>
</g>
</svg>
